<?xml version="1.0" encoding="UTF-8"?>
<svg version="1.1" xmlns="http://www.w3.org/2000/svg" width="512" height="512">
<path d="M0 0 C1.23134243 -0.00382555 2.46268487 -0.00765109 3.73134071 -0.01159257 C7.11894856 -0.02007443 10.50633731 -0.01970866 13.89393842 -0.01541197 C17.55940009 -0.01293196 21.22483691 -0.02197476 24.89028931 -0.02944946 C32.06039449 -0.04216419 39.23046217 -0.04399411 46.40057673 -0.0416492 C52.23351466 -0.03986191 58.06644125 -0.04162448 63.89937782 -0.04587364 C64.73142696 -0.04646883 65.5634761 -0.04706402 66.42073885 -0.04767724 C68.11140428 -0.04888908 69.8020697 -0.05010321 71.49273513 -0.05131962 C87.32993812 -0.06218318 103.1671198 -0.06003855 119.004324 -0.05393478 C133.46492876 -0.04876926 147.92546609 -0.06001353 162.38605752 -0.07903299 C177.26197263 -0.09844748 192.1378559 -0.10666091 207.01378375 -0.10290974 C215.35426065 -0.10100284 223.6946802 -0.10343505 232.03514671 -0.11762428 C239.1373544 -0.12958534 246.23946945 -0.13089051 253.34167852 -0.11883412 C256.9588983 -0.11297777 260.57594905 -0.11175489 264.1931572 -0.12383652 C292.11608434 -0.21079741 292.11608434 -0.21079741 305.31977844 3.26069641 C306.14833186 3.47795726 306.97688528 3.69521811 307.83054638 3.91906261 C323.79514586 8.55303452 338.56142848 16.6842092 351.31977844 27.26069641 C352.59208313 28.30483704 352.59208313 28.30483704 353.89009094 29.37007141 C376.35519054 48.66611307 390.28028073 76.06103512 394.31977844 105.26069641 C394.58476737 109.49004048 394.59461812 113.70424747 394.58047485 117.94091797 C394.5843004 119.1722604 394.58812595 120.40360283 394.59206742 121.67225868 C394.60054928 125.05986652 394.60018352 128.44725528 394.59588683 131.83485639 C394.59340681 135.50031806 394.60244962 139.16575488 394.60992432 142.83120728 C394.62263904 150.00131246 394.62446897 157.17138014 394.62212405 164.3414947 C394.62033676 170.17443263 394.62209933 176.00735922 394.6263485 181.84029579 C394.62694368 182.67234493 394.62753887 183.50439407 394.6281521 184.36165682 C394.62936393 186.05232225 394.63057807 187.74298767 394.63179448 189.43365309 C394.64265803 205.27085609 394.6405134 221.10803777 394.63440963 236.94524197 C394.62924411 251.40584673 394.64048838 265.86638406 394.65950785 280.32697549 C394.67892234 295.2028906 394.68713576 310.07877387 394.6833846 324.95470172 C394.68147769 333.29517862 394.6839099 341.63559817 394.69809914 349.97606468 C394.7100602 357.07827237 394.71136536 364.18038742 394.69930897 371.28259649 C394.69345262 374.89981627 394.69222974 378.51686702 394.70431137 382.13407516 C394.79127226 410.05700231 394.79127226 410.05700231 391.31977844 423.26069641 C391.1025176 424.08924983 390.88525675 424.91780325 390.66141224 425.77146435 C386.04087699 441.6897729 377.92041903 456.57497114 367.31977844 469.26069641 C366.48833313 470.25585266 365.65688782 471.25100891 364.80024719 472.27632141 C354.51610765 484.1934091 342.2360705 493.03810778 328.31977844 500.26069641 C326.97013 500.96645813 326.97013 500.96645813 325.59321594 501.68647766 C320.16650733 504.33425241 314.5909119 506.22048362 308.81977844 507.94819641 C308.14390686 508.15082092 307.46803528 508.35344543 306.77168274 508.56221008 C296.73740614 511.43273891 287.08556469 512.55669632 276.65974426 512.52812195 C275.43051853 512.53265306 274.20129279 512.53718417 272.93481779 512.54185259 C269.55300588 512.5522591 266.17140807 512.55383343 262.7895956 512.55146384 C259.13020776 512.55105324 255.47085084 512.56211801 251.81147766 512.57157898 C244.65240174 512.58813909 237.49335877 512.59368631 230.33426529 512.59480374 C224.50850367 512.59575681 218.68275284 512.59988002 212.85699463 512.60620499 C196.3062928 512.62380564 179.75561682 512.63304598 163.20490557 512.63154404 C162.31404409 512.63146413 161.4231826 512.63138421 160.50532532 512.63130188 C159.16738345 512.63117924 159.16738345 512.63117924 157.80241245 512.63105412 C143.36321597 512.63024208 128.92412402 512.64936198 114.48495775 512.67757861 C99.62597729 512.70638424 84.76704768 512.72011462 69.90803862 512.71839106 C61.57918092 512.71772969 53.25043273 512.72311006 44.92160034 512.74474716 C37.82714586 512.76306062 30.73285051 512.76722387 23.63838249 512.75372832 C20.0268156 512.74724875 16.41555305 512.74689664 12.80401611 512.76443481 C-24.84890681 512.93563323 -56.01930139 503.77574898 -83.73100281 477.26850891 C-92.85536082 468.1893359 -99.77651623 457.63579913 -105.68022156 446.26069641 C-106.38598328 444.91104797 -106.38598328 444.91104797 -107.10600281 443.53413391 C-109.75377756 438.1074253 -111.64000876 432.53182986 -113.36772156 426.76069641 C-113.57034607 426.08482483 -113.77297058 425.40895325 -113.98173523 424.71260071 C-116.85470274 414.6697994 -117.97575242 405.01527094 -117.94091797 394.58047485 C-117.94474352 393.34913242 -117.94856906 392.11778999 -117.95251054 390.84913415 C-117.9609924 387.4615263 -117.96062663 384.07413754 -117.95632994 380.68653643 C-117.95384993 377.02107477 -117.96289273 373.35563794 -117.97036743 369.69018555 C-117.98308216 362.52008036 -117.98491208 355.35001268 -117.98256717 348.17989812 C-117.98077988 342.3469602 -117.98254245 336.5140336 -117.98679161 330.68109703 C-117.9873868 329.84904789 -117.98798199 329.01699875 -117.98859521 328.159736 C-117.98980705 326.46907058 -117.99102118 324.77840515 -117.99223759 323.08773973 C-118.00310115 307.25053673 -118.00095652 291.41335505 -117.99485274 275.57615086 C-117.98968723 261.11554609 -118.00093149 246.65500877 -118.01995096 232.19441734 C-118.03936545 217.31850222 -118.04757888 202.44261895 -118.04382771 187.5666911 C-118.04192081 179.2262142 -118.04435302 170.88579465 -118.05854225 162.54532814 C-118.07050331 155.44312045 -118.07180848 148.3410054 -118.05975208 141.23879633 C-118.05389574 137.62157655 -118.05267286 134.00452581 -118.06475449 130.38731766 C-118.15171538 102.46439051 -118.15171538 102.46439051 -114.68022156 89.26069641 C-114.46296071 88.43214299 -114.24569986 87.60358957 -114.02185535 86.74992847 C-105.08117928 55.94820686 -83.57840799 29.59347524 -55.61479187 14.11763 C-38.19053319 4.9562113 -19.71027249 -0.06579875 0 0 Z " fill="#0087FF" transform="translate(117.68022155761719,-0.2606964111328125)"/>
<path d="M0 0 C3.61765383 0.00773686 7.23528791 0.00051328 10.85294294 -0.0041585 C16.91936115 -0.00957472 22.98566882 -0.00253301 29.05207014 0.01186323 C36.0140836 0.02819656 42.97583344 0.02287953 49.93784058 0.00638402 C55.97416658 -0.0073324 62.01041432 -0.00910191 68.0467509 -0.00129998 C71.62635328 0.00331946 75.2058327 0.00416296 78.78542662 -0.00590944 C111.48489553 -0.08515358 142.77656804 4.18551529 167.70832014 27.40297651 C168.19639143 27.85012007 168.68446272 28.29726362 169.18732405 28.75795698 C184.81606134 43.18791315 195.24311518 60.88514251 200.70832014 81.40297651 C201.10780363 82.72279776 201.10780363 82.72279776 201.51535749 84.06928205 C204.497376 94.9284671 204.14352181 105.8063719 204.10675764 116.98500776 C204.1087834 119.17012329 204.111699 121.35523815 204.11545515 123.54035139 C204.11985766 128.10343106 204.11351643 132.66633359 204.09943342 137.22939253 C204.08237365 143.03550245 204.09217594 148.84119522 204.11015081 154.64728975 C204.12107108 159.15587115 204.11750427 163.66435619 204.10976744 168.17294073 C204.10778654 170.31164492 204.11014918 172.45035826 204.1172061 174.58905172 C204.1573703 190.1830395 203.51511117 205.11960411 197.39582014 219.71547651 C197.08950666 220.46909468 196.78319319 221.22271284 196.46759748 221.99916792 C185.45908802 248.55983369 165.27765108 269.76760395 138.79035139 281.24672651 C124.30290739 286.68181324 110.14601903 289.75850718 94.65558577 289.70571089 C88.24295162 289.84424166 84.35295436 290.88768853 79.70832014 295.40297651 C77.44929874 297.79929806 77.44929874 297.79929806 75.52082014 300.40297651 C56.22819155 324.65844483 56.22819155 324.65844483 39.59503889 326.65688276 C30.4127203 327.16248112 22.07258471 323.51938943 15.09503889 317.71938276 C9.88277398 312.66067066 5.32574477 306.99965126 0.70832014 301.40297651 C-0.59663904 299.83417313 -1.90758625 298.27029252 -3.22917986 296.71547651 C-3.95427752 295.84342573 -3.95427752 295.84342573 -4.69402361 294.95375776 C-9.99179683 289.81142043 -14.76966545 290.05471376 -21.79167986 290.02797651 C-52.52323818 289.25243207 -80.21217532 276.49651744 -101.41667986 254.21547651 C-110.04214794 244.39887237 -116.28275807 233.44897248 -121.29167986 221.40297651 C-121.67066423 220.53672651 -122.04964861 219.67047651 -122.44011736 218.77797651 C-128.72879767 203.26905062 -128.76727428 186.41042803 -128.76042986 169.94594526 C-128.76755747 167.8247936 -128.77526009 165.7036438 -128.78350115 163.58249617 C-128.79684507 159.16444729 -128.7985604 154.74657682 -128.79265642 150.32851362 C-128.78676722 144.72798241 -128.8173686 139.12832008 -128.8577733 133.52795649 C-128.8838951 129.1547065 -128.88650582 124.78165909 -128.88288164 120.40834188 C-128.88454979 118.34631686 -128.89396346 116.28428002 -128.91202593 114.22233343 C-129.16506214 81.77777661 -118.94873765 54.57889822 -96.29167986 31.40297651 C-95.66390642 30.72492964 -95.03613298 30.04688276 -94.38933611 29.34828901 C-69.50055381 2.9954607 -33.97692176 -0.09578527 0 0 Z " fill="#018CFF" transform="translate(218.29167985916138,92.59702348709106)"/>
<path d="M0 0 C3.61765383 0.00773686 7.23528791 0.00051328 10.85294294 -0.0041585 C16.91936115 -0.00957472 22.98566882 -0.00253301 29.05207014 0.01186323 C36.0140836 0.02819656 42.97583344 0.02287953 49.93784058 0.00638402 C55.97416658 -0.0073324 62.01041432 -0.00910191 68.0467509 -0.00129998 C71.62635328 0.00331946 75.2058327 0.00416296 78.78542662 -0.00590944 C111.48489553 -0.08515358 142.77656804 4.18551529 167.70832014 27.40297651 C168.19639143 27.85012007 168.68446272 28.29726362 169.18732405 28.75795698 C184.81606134 43.18791315 195.24311518 60.88514251 200.70832014 81.40297651 C201.10780363 82.72279776 201.10780363 82.72279776 201.51535749 84.06928205 C204.497376 94.9284671 204.14352181 105.8063719 204.10675764 116.98500776 C204.1087834 119.17012329 204.111699 121.35523815 204.11545515 123.54035139 C204.11985766 128.10343106 204.11351643 132.66633359 204.09943342 137.22939253 C204.08237365 143.03550245 204.09217594 148.84119522 204.11015081 154.64728975 C204.12107108 159.15587115 204.11750427 163.66435619 204.10976744 168.17294073 C204.10778654 170.31164492 204.11014918 172.45035826 204.1172061 174.58905172 C204.1573703 190.1830395 203.51511117 205.11960411 197.39582014 219.71547651 C197.08950666 220.46909468 196.78319319 221.22271284 196.46759748 221.99916792 C185.45908802 248.55983369 165.27765108 269.76760395 138.79035139 281.24672651 C124.30290739 286.68181324 110.14601903 289.75850718 94.65558577 289.70571089 C88.24295162 289.84424166 84.35295436 290.88768853 79.70832014 295.40297651 C77.44929874 297.79929806 77.44929874 297.79929806 75.52082014 300.40297651 C56.22819155 324.65844483 56.22819155 324.65844483 39.59503889 326.65688276 C30.4127203 327.16248112 22.07258471 323.51938943 15.09503889 317.71938276 C9.88277398 312.66067066 5.32574477 306.99965126 0.70832014 301.40297651 C-0.59663904 299.83417313 -1.90758625 298.27029252 -3.22917986 296.71547651 C-3.95427752 295.84342573 -3.95427752 295.84342573 -4.69402361 294.95375776 C-9.99179683 289.81142043 -14.76966545 290.05471376 -21.79167986 290.02797651 C-52.52323818 289.25243207 -80.21217532 276.49651744 -101.41667986 254.21547651 C-110.04214794 244.39887237 -116.28275807 233.44897248 -121.29167986 221.40297651 C-121.67066423 220.53672651 -122.04964861 219.67047651 -122.44011736 218.77797651 C-128.72879767 203.26905062 -128.76727428 186.41042803 -128.76042986 169.94594526 C-128.76755747 167.8247936 -128.77526009 165.7036438 -128.78350115 163.58249617 C-128.79684507 159.16444729 -128.7985604 154.74657682 -128.79265642 150.32851362 C-128.78676722 144.72798241 -128.8173686 139.12832008 -128.8577733 133.52795649 C-128.8838951 129.1547065 -128.88650582 124.78165909 -128.88288164 120.40834188 C-128.88454979 118.34631686 -128.89396346 116.28428002 -128.91202593 114.22233343 C-129.16506214 81.77777661 -118.94873765 54.57889822 -96.29167986 31.40297651 C-95.66390642 30.72492964 -95.03613298 30.04688276 -94.38933611 29.34828901 C-69.50055381 2.9954607 -33.97692176 -0.09578527 0 0 Z M-70.76042986 65.18813276 C-84.06012745 82.01225021 -86.76787069 98.97733527 -86.72527361 119.69985151 C-86.72984592 121.66219464 -86.73515458 123.62453617 -86.74115801 125.58687544 C-86.75005143 129.68514746 -86.74771044 133.78322425 -86.73772478 137.88149214 C-86.72625979 143.09024863 -86.74642835 148.29832464 -86.77564192 153.50699186 C-86.79414002 157.55664438 -86.79368425 161.60613804 -86.7880044 165.65582228 C-86.78785274 167.57403977 -86.79376623 169.49226912 -86.80629587 171.41044569 C-86.92736989 192.9856957 -82.78949572 212.25086153 -67.57732439 228.3902812 C-63.00042053 232.96876058 -57.94427097 236.3110353 -52.29167986 239.40297651 C-51.6510158 239.7884062 -51.01035173 240.17383589 -50.35027361 240.57094526 C-40.1436324 246.32458102 -29.14294913 247.62082642 -17.66667986 247.90297651 C-1.06406077 248.33292214 13.92426465 253.05999349 25.70832014 265.40297651 C28.07602001 268.24264313 30.38024084 271.11366447 32.63019514 274.04750776 C34.60271022 276.28327204 35.96575145 277.33436304 38.70832014 278.40297651 C40.29357184 276.67553621 41.8765464 274.94609694 43.45832014 273.21547651 C44.34003889 272.25254683 45.22175764 271.28961714 46.13019514 270.29750776 C47.7294795 268.5019476 49.28128728 266.66129629 50.75128889 264.75844526 C58.0499762 255.97379766 70.62447683 250.33306496 81.70832014 248.40297651 C85.20682985 248.13700589 88.70111612 248.0891076 92.20832014 248.02797651 C112.2108512 247.33627996 129.76571589 241.64080417 144.11847639 227.25844526 C148.00739302 222.97066539 150.9969189 218.50593542 153.70832014 213.40297651 C154.17882795 212.51867964 154.64933577 211.63438276 155.13410139 210.72328901 C161.8212284 197.11232254 162.17243082 183.80093755 162.14191389 168.97328901 C162.14648688 167.0099795 162.15179573 165.04667158 162.15779829 163.08336592 C162.16668467 158.98687401 162.16435783 154.89057752 162.15436506 150.79408979 C162.14288493 145.58414312 162.16309554 140.37487524 162.1922822 135.1650176 C162.21076347 131.11540759 162.21032809 127.06595666 162.20464468 123.01631498 C162.2044929 121.09727098 162.21041649 119.17821519 162.22293615 117.25921202 C162.33770989 96.78705929 158.78565116 79.04678046 144.01691389 63.68032026 C143.25507795 62.92879683 142.49324202 62.17727339 141.70832014 61.40297651 C140.64290998 60.32209761 140.64290998 60.32209761 139.55597639 59.21938276 C127.1002102 47.30419232 110.75867791 42.76665172 93.87848616 42.90126753 C92.56283674 42.89586454 91.24718733 42.89046156 89.89166975 42.88489485 C86.32325903 42.87108075 82.7553381 42.88201007 79.18695521 42.89860606 C75.42592143 42.91259831 71.66491205 42.90598043 67.90386152 42.90247297 C61.59047387 42.89978159 55.27727748 42.91315237 48.96393538 42.93642378 C41.70035469 42.96301521 34.43709372 42.96478026 27.17348105 42.95303541 C20.14205832 42.94219531 13.11074944 42.948494 6.07933569 42.96259069 C3.10720721 42.96829794 0.1351635 42.96830984 -2.83696604 42.9635253 C-7.0022997 42.95779502 -11.16717021 42.97722397 -15.33245134 42.99892378 C-16.54274508 42.99442213 -17.75303881 42.98992048 -19.00000811 42.98528242 C-39.28511586 43.15950806 -57.09778352 49.77441941 -70.76042986 65.18813276 Z " fill="#FDFEFF" transform="translate(218.29167985916138,92.59702348709106)"/>
<path d="M0 0 C1.81053108 -0.00856522 1.81053108 -0.00856522 3.65763855 -0.01730347 C4.9921111 -0.01854873 6.32658377 -0.01967384 7.66105652 -0.02069092 C9.06899139 -0.02532119 10.47692501 -0.03034613 11.88485718 -0.03573608 C15.707282 -0.04884171 19.52968927 -0.05530141 23.35213304 -0.05974674 C25.74157016 -0.06268034 28.13100252 -0.06678569 30.52043724 -0.07125092 C38.00034685 -0.08492081 45.48024552 -0.09459004 52.96016675 -0.09845281 C61.58745293 -0.10293291 70.21458063 -0.12048066 78.84181863 -0.1494534 C85.51541747 -0.17108548 92.18897176 -0.1811579 98.86260527 -0.18249393 C102.84620777 -0.18354083 106.82966119 -0.18942424 110.8132267 -0.20731354 C114.56186384 -0.22382077 118.31024024 -0.22593699 122.05890083 -0.21717453 C124.08407108 -0.21603998 126.10923279 -0.22973669 128.13435364 -0.243927 C137.06525471 -0.20300692 143.45340388 0.67417535 150.09928894 7.14044189 C154.52276266 12.6398957 154.83658895 17.71311959 154.59928894 24.69122314 C153.81255983 30.11842474 151.9387675 33.31105529 148.09928894 37.14044189 C140.45012904 42.60164067 132.92898485 42.85820311 123.79631042 42.78741455 C122.38087342 42.79420368 120.96544526 42.80311403 119.55003357 42.81396484 C115.73380383 42.83660958 111.91825573 42.82798473 108.10201526 42.81206942 C104.09303741 42.79933529 100.08411462 42.81117102 96.07513428 42.81900024 C89.34618236 42.82807404 82.61750564 42.81616775 75.88859558 42.79229736 C68.1266811 42.76507916 60.36542326 42.77391406 52.60352463 42.80142939 C45.91867972 42.82417128 39.23403166 42.82729617 32.54916054 42.81423604 C28.56553618 42.80647073 24.58221979 42.80531904 20.59861565 42.82191849 C16.85294456 42.83643891 13.10811447 42.82620562 9.36253357 42.7974472 C7.3449924 42.7877608 5.32737949 42.80247098 3.30987549 42.81808472 C-5.5085388 42.7160037 -11.47790277 41.10599015 -18.09211731 35.17559814 C-22.69366633 28.55513588 -23.26583555 22.02176061 -21.90071106 14.14044189 C-19.41180855 8.1636896 -15.59621122 4.11200719 -9.90071106 1.14044189 C-6.57578196 0.06639079 -3.48199848 0.00987276 0 0 Z " fill="#FEFEFF" transform="translate(189.9007110595703,247.85955810546875)"/>
<path d="M0 0 C1.42838319 -0.00322435 2.85676249 -0.00904914 4.28512573 -0.01725769 C8.14070495 -0.03171717 11.9952317 -0.00894854 15.85068369 0.02160144 C19.89660723 0.04808304 23.94250232 0.04266794 27.98849487 0.04151917 C34.7789659 0.04432261 41.56903302 0.07028818 48.359375 0.11132812 C56.19900854 0.15853612 64.03820062 0.17432074 71.87796605 0.17212147 C80.24357753 0.170092 88.60901995 0.19092782 96.97458029 0.21846128 C99.37752143 0.22484076 101.78043511 0.22698281 104.18338394 0.22817802 C107.96418152 0.23120149 111.74461156 0.24959733 115.52528763 0.27967644 C116.90913134 0.28840444 118.29301737 0.29213709 119.67688751 0.29039383 C129.2885708 0.28287051 136.49285554 0.72904024 143.68701172 7.72875977 C148.11048543 13.22821357 148.42431173 18.30143746 148.18701172 25.27954102 C147.40029572 30.70665215 145.52657804 33.89952363 141.68701172 37.72875977 C134.04367215 43.18221899 126.52507655 43.45142491 117.39990234 43.39160156 C115.98608559 43.4000313 114.57228006 43.4105637 113.15849304 43.42301941 C109.34634981 43.44990906 105.53486526 43.44540971 101.7226696 43.43331885 C98.52942081 43.42615193 95.33629111 43.43471073 92.14305162 43.44322425 C84.60567379 43.46312626 77.06861352 43.45766371 69.53125 43.43554688 C61.77722842 43.41317975 54.0240393 43.43079668 46.2700963 43.46859616 C39.59032398 43.49990504 32.91080833 43.50772382 26.23097181 43.49664241 C22.25115859 43.4901801 18.27182542 43.49203815 14.29206848 43.51596642 C10.54875358 43.53733068 6.80660658 43.52909789 3.06336403 43.49887276 C1.04957533 43.48960506 -0.96428291 43.50964434 -2.97798157 43.53082275 C-11.19689775 43.42652291 -16.8769758 41.99153554 -23.31298828 36.72875977 C-27.75371072 32.14142008 -28.66609093 28.0911578 -28.93798828 21.72875977 C-28.62768419 14.28146157 -26.98727091 10.1199597 -21.54835701 5.10008335 C-14.70055149 -0.10439731 -8.33641693 -0.10984577 0 0 Z " fill="#FEFEFF" transform="translate(196.31298828125,183.271240234375)"/>
</svg>
